HIERARCHY
ROOT Hips
{
 OFFSET 0.000000 0.000000 0.000000
 CHANNELS 6 Xposition Yposition Zposition Yrotation Xrotation Zrotation
 JOINT Chest
 {
  OFFSET 0.000000 9.585900 0.002600
  CHANNELS 3 Yrotation Xrotation Zrotation
  JOINT Chest2
  {
   OFFSET 0.000000 9.601200 -0.005300
   CHANNELS 3 Yrotation Xrotation Zrotation
   JOINT Chest3
   {
    OFFSET 0.000000 9.561800 0.000000
    CHANNELS 3 Yrotation Xrotation Zrotation
    JOINT Chest4
    {
     OFFSET 0.000000 9.552100 0.000000
     CHANNELS 3 Yrotation Xrotation Zrotation
     JOINT Neck
     {
      OFFSET 0.000000 14.453000 0.000000
      CHANNELS 3 Yrotation Xrotation Zrotation
      JOINT Head
      {
       OFFSET 0.000000 8.936500 -0.011300
       CHANNELS 3 Yrotation Xrotation Zrotation
       End Site
       {
        OFFSET 0.000000 17.073600 -0.006000
       }
      }
     }
     JOINT RightCollar
     {
      OFFSET -2.921100 9.558500 0.000000
      CHANNELS 3 Yrotation Xrotation Zrotation
      JOINT RightShoulder
      {
       OFFSET -13.519700 0.000000 0.000000
       CHANNELS 3 Yrotation Xrotation Zrotation
       JOINT RightElbow
       {
        OFFSET 0.000000 -29.696600 0.000000
        CHANNELS 3 Yrotation Xrotation Zrotation
        JOINT RightWrist
        {
         OFFSET 0.000000 -24.004700 0.000000
         CHANNELS 3 Yrotation Xrotation Zrotation
         End Site
         {
          OFFSET 0.000000 -17.728500 0.000000
         }
        }
       }
      }
     }
     JOINT LeftCollar
     {
      OFFSET 2.921100 9.558500 0.000000
      CHANNELS 3 Yrotation Xrotation Zrotation
      JOINT LeftShoulder
      {
       OFFSET 13.519700 0.000000 0.000000
       CHANNELS 3 Yrotation Xrotation Zrotation
       JOINT LeftElbow
       {
        OFFSET 0.000000 -29.696600 0.000000
        CHANNELS 3 Yrotation Xrotation Zrotation
        JOINT LeftWrist
        {
         OFFSET 0.000000 -24.004700 0.000000
         CHANNELS 3 Yrotation Xrotation Zrotation
         End Site
         {
          OFFSET 0.000000 -17.728500 0.000000
         }
        }
       }
      }
     }
    }
   }
  }
 }
 JOINT RightHip
 {
  OFFSET -7.771700 -0.012900 -0.001300
  CHANNELS 3 Yrotation Xrotation Zrotation
  JOINT RightKnee
  {
   OFFSET 0.000000 -40.869800 0.001200
   CHANNELS 3 Yrotation Xrotation Zrotation
   JOINT RightAnkle
   {
    OFFSET 0.000000 -39.717900 0.002100
    CHANNELS 3 Yrotation Xrotation Zrotation
    JOINT RightToe
    {
     OFFSET 0.000000 -4.965400 11.033500
     CHANNELS 3 Yrotation Xrotation Zrotation
     End Site
     {
      OFFSET 0.000000 -1.423100 5.872300
     }
    }
   }
  }
 }
 JOINT LeftHip
 {
  OFFSET 7.771700 -0.012900 -0.001300
  CHANNELS 3 Yrotation Xrotation Zrotation
  JOINT LeftKnee
  {
   OFFSET 0.000000 -40.869800 0.001200
   CHANNELS 3 Yrotation Xrotation Zrotation
   JOINT LeftAnkle
   {
    OFFSET 0.000000 -39.717900 0.002100
    CHANNELS 3 Yrotation Xrotation Zrotation
    JOINT LeftToe
    {
     OFFSET 0.000000 -4.965400 11.033500
     CHANNELS 3 Yrotation Xrotation Zrotation
     End Site
     {
      OFFSET 0.000000 -1.423100 5.872300
     }
    }
   }
  }
 }
}
MOTION
Frames: 5
Frame Time: 0.008333
0.000000 85.388000 0.000000 0.000000 -5.767877 0.000000 0.000000 11.653817 0.000000 0.000000 -5.885947 0.000000 0.000000 -0.000000 0.000000 0.000000 -0.000000 0.000000 0.000000 12.528835 0.000000 0.000000 0.711642 0.000000 0.000000 -0.000000 0.000000 0.000000 0.000000 -90.000000 0.000000 -2.309062 0.000000 0.000000 2.309062 0.000000 0.000000 -0.000000 0.000000 0.000000 -0.000000 90.000000 0.000000 -2.309062 0.000000 0.000000 2.309062 0.000000 0.000000 8.520406 0.000000 0.000000 1.905762 0.000000 -0.000000 -4.658285 0.000000 0.000000 -0.000000 0.000000 0.000000 8.520406 0.000000 0.000000 1.905762 0.000000 -0.000000 -4.658285 0.000000 0.000000 -0.000000 0.000000
-208.261031 57.610307 -68.565618 160.564617 -8.196500 0.621681 3.640201 6.234689 1.285080 0.147923 0.270330 0.012288 0.260581 0.476476 0.031603 3.300940 5.972068 0.512304 0.063260 18.091570 -0.899528 0.415001 -2.177595 -1.676780 1.101036 8.014488 1.104053 -2.297906 -6.003635 -9.619255 -65.925500 -85.166120 96.462435 -1.863913 2.714062 -21.551059 -4.414073 8.713657 -1.909470 14.787611 -2.762687 3.666396 103.851632 -78.392982 -135.846952 -3.979803 9.015483 7.375828 -17.217035 -63.712053 7.846319 -32.337169 72.760224 -32.422538 -2.958186 -7.339671 -2.238997 -0.327447 0.763400 -0.134171 0.825039 -66.259687 15.333503 42.206777 65.645943 34.984495 -18.079174 -9.362019 3.737542 -0.151211 -1.208238 -0.091564
-208.261708 57.609990 -68.566026 160.559645 -8.195929 0.611866 3.646004 6.232735 1.290826 0.148074 0.270814 0.015868 0.251743 0.469700 0.024842 3.309910 5.977355 0.520343 0.068406 18.104982 -0.899836 0.419965 -2.167453 -1.676972 1.103188 8.016250 1.106049 -2.249699 -6.015993 -9.602255 -65.796043 -85.175400 96.294997 -1.861761 2.714149 -21.533434 -4.421985 8.710973 -1.917984 14.761157 -2.782927 3.677130 103.832212 -78.397115 -135.824798 -3.985063 9.006843 7.344526 -17.210696 -63.707408 7.858925 -32.352364 72.751741 -32.433875 -2.973679 -7.341858 -2.239570 -0.308794 0.766144 -0.131275 0.805512 -66.259017 15.354157 42.209573 65.631174 34.989915 -18.080888 -9.307528 3.739508 -0.143454 -1.189908 -0.091591
-208.262636 57.609500 -68.565113 160.559545 -8.186708 0.599497 3.639140 6.218627 1.297111 0.147749 0.270239 0.015925 0.256725 0.472038 0.028162 3.300901 5.970133 0.517535 0.085142 18.133433 -0.902618 0.458947 -2.104946 -1.686098 1.117259 8.031254 1.113312 -2.230499 -6.027752 -9.597221 -65.819500 -85.181363 96.309538 -1.852585 2.716423 -21.513127 -4.419173 8.718363 -1.926908 14.743276 -2.804333 3.689894 103.877617 -78.386751 -135.907227 -3.968741 9.036174 7.402195 -17.237917 -63.712101 7.891048 -32.316073 72.756477 -32.399610 -2.980266 -7.339080 -2.241755 -0.307103 0.763250 -0.131332 0.773072 -66.267242 15.379466 42.210394 65.612081 34.992325 -18.075421 -9.246011 3.739758 -0.146789 -1.185456 -0.092466
-208.263978 57.609102 -68.564572 160.556168 -8.178144 0.591224 3.637951 6.205375 1.304093 0.147862 0.270255 0.016033 0.259316 0.474069 0.028450 3.294441 5.964502 0.512700 0.099173 18.149534 -0.901432 0.479486 -2.077120 -1.693413 1.139323 8.042227 1.122274 -2.226368 -6.037782 -9.591303 -65.760296 -85.188206 96.240170 -1.848576 2.708957 -21.498637 -4.420694 8.725593 -1.935288 14.694055 -2.839521 3.701462 103.810767 -78.391987 -135.815255 -3.974541 9.029895 7.395813 -17.251042 -63.715778 7.914176 -32.299729 72.755241 -32.384759 -2.984512 -7.341983 -2.243801 -0.305518 0.766732 -0.129831 0.756671 -66.273528 15.393844 42.196238 65.591665 34.978120 -18.068643 -9.156322 3.743494 -0.141974 -1.201118 -0.093825
